<svg xmlns="http://www.w3.org/2000/svg" viewBox="0 0 960 960" width="960" height="960">
  <!-- Fond blanc arrondi -->
  <rect x="20" y="20" width="920" height="920" rx="140" ry="140" fill="#FFFFFF"/>

  <!-- Logo Homey stylisé (gauche) : anneau multicolore -->
  <circle cx="280" cy="480" r="200" fill="none" stroke="#FF6B00" stroke-width="72" stroke-dasharray="880 200" stroke-dashoffset="0" stroke-linecap="round"/>
  <circle cx="280" cy="480" r="200" fill="none" stroke="#FFD700" stroke-width="72" stroke-dasharray="440 640" stroke-dashoffset="-220" stroke-linecap="round" opacity="0.85"/>
  <circle cx="280" cy="480" r="200" fill="none" stroke="#00CC66" stroke-width="72" stroke-dasharray="220 860" stroke-dashoffset="-440" stroke-linecap="round" opacity="0.85"/>
  <circle cx="280" cy="480" r="200" fill="none" stroke="#0088FF" stroke-width="72" stroke-dasharray="220 860" stroke-dashoffset="-660" stroke-linecap="round" opacity="0.85"/>

  <!-- Séparateur vertical -->
  <line x1="490" y1="160" x2="490" y2="800" stroke="#E0E0E0" stroke-width="3"/>

  <!-- Logo Verisure (droite) : bouclier rouge -->
  <path d="M680 180 L860 245 L860 490 Q860 650 680 740 Q500 650 500 490 L500 245 Z"
        fill="#C8102E"/>
  <path d="M680 240 L820 295 L820 480 Q820 610 680 690 Q540 610 540 480 L540 295 Z"
        fill="#FFFFFF" opacity="0.12"/>
  <polyline points="595,470 655,540 765,370"
        stroke="#FFFFFF" stroke-width="52"
        stroke-linecap="round" stroke-linejoin="round"
        fill="none"/>
</svg>
